<?xml version="1.0" standalone="no"?><!DOCTYPE svg PUBLIC "-//W3C//DTD SVG 1.1//EN" "http://www.w3.org/Graphics/SVG/1.1/DTD/svg11.dtd"><svg t="1629591536085" class="icon" viewBox="0 0 1024 1024" version="1.1" xmlns="http://www.w3.org/2000/svg" p-id="2413" xmlns:xlink="http://www.w3.org/1999/xlink" width="200" height="200"><defs><style type="text/css"></style></defs><path d="M849.621 619.904a1364.352 1364.352 0 0 0-28.8-80.47l-38.826-95.829c0-1.109 0.512-19.968 0.512-29.696 0-163.882-78.208-328.576-270.507-328.576S241.493 250.027 241.493 413.867c0 9.77 0.47 28.629 0.512 29.738l-38.826 95.83a1398.485 1398.485 0 0 0-28.8 80.469c-36.694 116.779-24.79 165.12-15.744 166.187 19.413 2.304 75.562-87.894 75.562-87.894 0 52.224 27.179 120.406 86.016 169.643-21.973 6.699-48.938 17.024-66.304 29.653-15.573 11.392-13.61 23.04-10.794 27.734 12.33 20.522 211.413 13.098 268.928 6.698 57.472 6.4 256.597 13.824 268.885-6.741 2.816-4.693 4.779-16.299-10.795-27.69-17.365-12.63-44.33-22.955-66.346-29.697 58.837-49.194 86.016-117.376 86.016-169.642 0 0 56.149 90.24 75.562 87.893 9.046-1.067 20.907-49.365-15.786-166.144" fill="#CDCDCD" p-id="2414"></path></svg>